<svg xmlns="http://www.w3.org/2000/svg" viewBox="0 23.399999618530273 107.69999694824219 46.599998474121094" data-asc="1.2" width="107.69999694824219" height="46.599998474121094">
    <style>
        svg g {
            animation: rainbow 2.5s linear;
            animation-iteration-count: 1;
            animation-iteration-count: infinite;
        }
        @keyframes rainbow {
            100%, 0% { fill: #ff6161; }
            8% { fill: #ff7f00; }
            16% { fill: #ff0; }
            25% { fill: #7fff00; }
            33% { fill: lime; }
            41% { fill: #00ff7f; }
            50% { fill: aqua; }
            58% { fill: #007fff; }
            66% { fill: #2499ff; }
            75% { fill: #bf75ff; }
            83% { fill: #f3f; }
            91% { fill: #ff52ae; }
        }
    </style>
    <defs/><g fill="#000000"><g transform="translate(0, 0)"><path d="M8.70 66.95Q6.45 66.95 4.45 65.95Q2.45 64.95 1.23 63.20Q0 61.45 0 59.25L0.60 58.95Q2.95 60.70 5.30 60.70Q6.65 60.70 7.85 59.95Q9.05 59.20 9.98 57.30Q10.90 55.40 11.43 52.05Q11.95 48.70 11.95 43.45Q11.95 39 12.53 36.05Q13.10 33.10 14.90 30.65Q14.25 30.20 13.38 29.82Q12.50 29.45 11.55 29.45Q9.95 29.45 8.93 30.63Q7.90 31.80 7.90 33.60Q7.90 34.55 8.22 35.60Q8.55 36.65 9.25 37.70Q6.25 37.70 4.28 36.63Q2.30 35.55 1.33 33.90Q0.35 32.25 0.35 30.45Q0.35 28.65 1.23 27.05Q2.10 25.45 3.85 24.42Q5.60 23.40 8.10 23.40Q10.05 23.40 12.45 24.17Q14.85 24.95 17.70 26.75Q19.45 24.70 20.85 24.20Q22.25 23.70 23.05 23.70Q25.10 23.70 26.05 25.07Q27 26.45 27 28.35Q27 29.60 26.53 30.80Q26.05 32 25.05 32.77Q24.05 33.55 22.45 33.55Q21.95 33.55 21.38 33.45Q20.80 33.35 20.10 33.10Q19.75 34 19.60 35.20Q19.45 36.40 19.45 37.80Q19.45 40.55 19.75 43.67Q20.05 46.80 20.05 49.80Q20.05 54.50 19.05 57.77Q18.05 61.05 16.40 63.08Q14.75 65.10 12.75 66.03Q10.75 66.95 8.70 66.95ZM38.10 60.35Q34.45 60.35 32.05 58.88Q29.65 57.40 28.45 54.98Q27.25 52.55 27.25 49.75Q27.25 47.10 28.28 44.42Q29.30 41.75 31.28 39.55Q33.25 37.35 36.08 36Q38.90 34.65 42.45 34.65Q46.85 34.65 48.88 36.63Q50.90 38.60 50.90 41.40Q50.90 43.80 49.63 45.83Q48.35 47.85 46.25 49.08Q44.15 50.30 41.65 50.30Q40.35 50.30 39 49.90Q37.65 49.50 36.35 48.65Q36.60 51.75 38.15 53.15Q39.70 54.55 41.85 54.55Q43.35 54.55 44.85 53.98Q46.35 53.40 47.63 52.48Q48.90 51.55 49.60 50.50L49.95 50.75Q49.95 53.35 48.88 55.17Q47.80 57 46.05 58.15Q44.30 59.30 42.23 59.83Q40.15 60.35 38.10 60.35M39.25 46.85Q40.85 46.85 41.85 45.92Q42.85 45 43.35 43.75Q43.85 42.50 43.85 41.55Q43.85 40.40 43.20 39.63Q42.55 38.85 41.40 38.85Q40.50 38.85 39.43 39.50Q38.35 40.15 37.50 41.72Q36.65 43.30 36.40 46.10Q38 46.85 39.25 46.85ZM59.10 60.20Q57.75 60.20 56.48 59.52Q55.20 58.85 54.40 57.35Q53.60 55.85 53.60 53.50Q53.60 51.40 54.18 48.58Q54.75 45.75 55.48 42.70Q56.20 39.65 56.75 36.75Q57.30 33.85 57.25 31.60Q57.25 29.45 56.75 28.55L56.70 28.40Q57.25 26.80 58.65 25.90Q60.05 25 61.60 25Q63.35 25 64.73 26.32Q66.10 27.65 66.10 30.75Q66.10 32.40 65.70 34.67Q65.30 36.95 64.75 39.52Q64.20 42.10 63.63 44.60Q63.05 47.10 62.65 49.20Q62.25 51.30 62.25 52.65Q62.25 54.05 62.65 54.58Q63.05 55.10 63.55 55.10Q64.10 55.10 64.60 54.67Q65.10 54.25 65.25 53.90L65.65 54Q65.60 55.80 64.63 57.20Q63.65 58.60 62.18 59.40Q60.70 60.20 59.10 60.20ZM74.40 60.20Q73.05 60.20 71.78 59.52Q70.50 58.85 69.70 57.35Q68.90 55.85 68.90 53.50Q68.90 51.40 69.48 48.58Q70.05 45.75 70.78 42.70Q71.50 39.65 72.05 36.75Q72.60 33.85 72.55 31.60Q72.55 29.45 72.05 28.55L72 28.40Q72.55 26.80 73.95 25.90Q75.35 25 76.90 25Q78.65 25 80.03 26.32Q81.40 27.65 81.40 30.75Q81.40 32.40 81 34.67Q80.60 36.95 80.05 39.52Q79.50 42.10 78.93 44.60Q78.35 47.10 77.95 49.20Q77.55 51.30 77.55 52.65Q77.55 54.05 77.95 54.58Q78.35 55.10 78.85 55.10Q79.40 55.10 79.90 54.67Q80.40 54.25 80.55 53.90L80.95 54Q80.90 55.80 79.93 57.20Q78.95 58.60 77.48 59.40Q76 60.20 74.40 60.20ZM94.35 70Q91.85 70 90.33 68.47Q88.80 66.95 88.80 64.35Q88.80 63 89.28 61.38Q89.75 59.75 90.85 57.95Q88.40 57.80 86.83 56.30Q85.25 54.80 85.25 51.75Q85.25 49.95 85.72 47.88Q86.20 45.80 86.65 43.97Q87.10 42.15 87.10 41.15Q87.10 40.40 86.80 40.08Q86.50 39.75 86.10 39.75Q85.70 39.75 85.22 40.08Q84.75 40.40 84.50 41.05L83.65 40.15Q83.95 38.60 84.95 37.40Q85.95 36.20 87.40 35.50Q88.85 34.80 90.40 34.80Q92.15 34.80 93.45 35.92Q94.75 37.05 94.75 40Q94.75 41.85 94.30 43.97Q93.85 46.10 93.40 47.98Q92.95 49.85 92.95 50.95Q92.95 51.95 93.38 52.42Q93.80 52.90 94.35 52.90Q95.05 52.90 95.95 52.13Q96.85 51.35 97.65 49.55Q98.45 47.75 98.70 44.70Q98.80 43.75 98.85 42.27Q98.90 40.80 98.95 39.52Q99 38.25 99 37.95Q99 36.15 100.33 35.42Q101.65 34.70 103.25 34.70Q104.65 34.70 105.90 35.25Q107.15 35.80 107.60 37.10L107.70 37.40Q107.25 37.80 106.92 40.10Q106.60 42.40 106.15 46.25Q105.85 48.75 105.40 51.90Q104.95 55.05 104.17 58.23Q103.40 61.40 102.13 64.08Q100.85 66.75 98.95 68.38Q97.05 70 94.35 70M93.15 64.25Q94.70 64.25 95.92 61.42Q97.15 58.60 97.85 53.40Q94.65 57.50 93.45 59.85Q92.25 62.20 92.25 63.25Q92.25 64.25 93.15 64.25Z"/></g></g>
</svg>